[center][img]http://img846.imageshack.us/img846/8247/fterqbej.jpg[/img]



[img]http://leetleech.org/images/48874973695367351744.png[/img]


The Dawn Treader.avi
Format                           : AVI
Format/Info                      : Audio Video Interleave
Format profile                   : OpenDML
File size                        : 2.65 GiB
Duration                         : 1h 52mn
Overall bit rate                 : 3 366 Kbps
Writing application              : VirtualDubMod 1.5.10.2 (build 2542/release)
Writing library                  : VirtualDub build 32839/release

Video
ID                               : 0
Format                           : MPEG-4 Visual
Format profile                   : Advanced Simple@L5
Format settings, BVOP            : Yes
Format settings, QPel            : No
Format settings, GMC             : No warppoints
Format settings, Matrix          : Custom
Codec ID                         : XVID
Codec ID/Hint                    : XviD
Duration                         : 1h 52mn
Bit rate                         : 2 907 Kbps
Width                            : 720 pixels
Height                           : 400 pixels
Display aspect ratio             : 16:9
Frame rate                       : 23.976 fps
Color space                      : YUV
Chroma subsampling               : 4:2:0
Bit depth                        : 8 bits
Scan type                        : Progressive
Bits/(Pixel*Frame)               : 0.421
Stream size                      : 2.29 GiB (86%)
Writing library                  : XviD 1.2.1 (UTC 2008-12-04)

Audio
ID                               : 1
Format                           : AC-3
Format/Info                      : Audio Coding 3
Mode extension                   : CM (complete main)
Codec ID                         : 2000
Duration                         : 1h 52mn
Bit rate mode                    : Constant
Bit rate                         : 448 Kbps
Channel(s)                       : 6 channels
Channel positions                : Front: L C R, Side: L R, LFE
Sampling rate                    : 48.0 KHz
Bit depth                        : 16 bits
Stream size                      : 361 MiB (13%)
Alignment                        : Split accross interleaves
Interleave, duration             : 42 ms (1.00 video frame)
Interleave, preload duration     : 500 ms




[url]http://www.imdb.com/title/tt0980970/[/url]




[IMG]http://leetleech.org/images/89524873606771859129.png[/IMG]


Users: 6.6/10 (11,836 votes) 164 reviews | Critics: 164 reviews Metascore: 53/100 (based on 33 reviews from Metacritic.com)

Lucy and Edmund Pevensie return to Narnia with their cousin Eustace where they meet up with Prince Caspian for a trip across the sea aboard the royal ship The Dawn Treader. Along the way they encounter dragons, dwarves, merfolk, and a band of lost warriors before reaching the edge of the world.
Director:
Michael Apted
Writers:
Christopher Markus (screenplay), Stephen McFeely (screenplay)
Stars:
Ben Barnes, Skandar Keynes and Georgie Henley




[img]http://leetleech.org/images/95521316153253938506.png[/img]




[img]http://img850.imageshack.us/img850/4527/vlcsnap2011031106h26m16.png[/img]

[img]http://img855.imageshack.us/img855/7429/vlcsnap2011031106h28m21.png[/img]

[img]http://img864.imageshack.us/img864/7302/vlcsnap2011031106h30m17.png[/img]

[img]http://img852.imageshack.us/img852/3928/vlcsnap2011031106h31m50.png[/img]





Source...............: 720p DTS x264-CHD      .................... Thanks

Far too many encodes for me to go with just just a regular file size 480p so upped the bitrate and gave it abit more life in my opinion ...Big file is it worth it ....not sure but the quality is visible ............ Either way enjoy



Greetz to Imagine ,Flawl3ss,DiLLoN,BDK,NOiR,TOXiCiNK,THC,Ez,Rx,[/center]





[img]http://img411.imageshack.us/img411/6898/sig1n.jpg[/img]












[/center]